<svg width="1920" height="1081" viewBox="0 0 1920 1081" fill="none" xmlns="http://www.w3.org/2000/svg">
<g id="Frame 2">
<rect width="1920" height="1081" fill="white"/>
<g id="base">
<path id="Vector" fill-rule="evenodd" clip-rule="evenodd" d="M1210.58 232.35H935.52L1073.05 176.43L1210.58 232.35Z" fill="#5C5C5C"/>
<path id="Vector_2" fill-rule="evenodd" clip-rule="evenodd" d="M1146.28 220.61H1024.31V138.01H1146.28V220.61Z" fill="#E6DFDB"/>
<path id="Vector_3" fill-rule="evenodd" clip-rule="evenodd" d="M620 124.35H797.36V134.09H620V124.35Z" fill="#666666"/>
<path id="Vector_4" fill-rule="evenodd" clip-rule="evenodd" d="M620 124.35H875.32L747.66 72.45L620 124.35Z" fill="#4D4D4D"/>
<path id="Vector_5" fill-rule="evenodd" clip-rule="evenodd" d="M973.09 128.27H1162.13L1067.61 89.84L973.09 128.27Z" fill="#4D4D4D"/>
<path id="Vector_6" fill-rule="evenodd" clip-rule="evenodd" d="M1024.31 354.72H797.36V116.48H1024.31V354.72Z" fill="#808080"/>
<path id="Vector_7" fill-rule="evenodd" clip-rule="evenodd" d="M1010.63 232.35H811.04V116.48H1010.63V232.35Z" fill="#FCF5F1"/>
<g id="Group">
<path id="Vector_8" d="M872.96 131.36H824.85V217.47H872.96V131.36Z" fill="#666666"/>
<path id="Vector_9" d="M934.89 131.36H886.78V217.47H934.89V131.36Z" fill="#666666"/>
<path id="Vector_10" d="M996.82 131.36H948.71V217.47H996.82V131.36Z" fill="#666666"/>
</g>
<g id="Group_2">
<path id="Vector_11" fill-rule="evenodd" clip-rule="evenodd" d="M869.04 213.56H828.76V135.27H869.04V213.56Z" fill="#E0F0FF"/>
<path id="Vector_12" fill-rule="evenodd" clip-rule="evenodd" d="M930.98 213.56H890.69V135.27H930.98V213.56Z" fill="#E0F0FF"/>
<path id="Vector_13" fill-rule="evenodd" clip-rule="evenodd" d="M992.91 213.56H952.62V135.27H992.91V213.56Z" fill="#E0F0FF"/>
</g>
<path id="Vector_14" fill-rule="evenodd" clip-rule="evenodd" d="M1010.63 354.72H811.04V246.68H1010.63V354.72Z" fill="#FCF5F1"/>
<path id="Vector_15" fill-rule="evenodd" clip-rule="evenodd" d="M1048.36 106.74H773.3V116.48H1048.36V106.74Z" fill="#545454"/>
<path id="Vector_16" fill-rule="evenodd" clip-rule="evenodd" d="M1048.36 106.74H773.3L910.83 43L1048.36 106.74Z" fill="#5C5C5C"/>
<path id="Vector_17" fill-rule="evenodd" clip-rule="evenodd" d="M888.88 354.72H823.77V260.19H888.88V354.72Z" fill="#666666"/>
<path id="Vector_18" fill-rule="evenodd" clip-rule="evenodd" d="M884.75 354.72H827.9V263.64H884.75V354.72Z" fill="#E3C485"/>
<path id="Vector_19" fill-rule="evenodd" clip-rule="evenodd" d="M855.55 350.39H834.23V269.25H855.55V350.39Z" fill="#E0F0FF"/>
<path id="Vector_20" fill-rule="evenodd" clip-rule="evenodd" d="M842.23 350.39H837.92V269.25H842.23V350.39Z" fill="#E0F0FF"/>
<g id="Group_3">
<path id="Vector_21" fill-rule="evenodd" clip-rule="evenodd" d="M843.67 350.39H839.36V269.25H843.67V350.39Z" fill="#EDF6FF"/>
<path id="Vector_22" fill-rule="evenodd" clip-rule="evenodd" d="M847.41 350.39H846.33V269.26H847.41V350.39Z" fill="#EDF6FF"/>
</g>
<g id="Group_4">
<path id="Vector_23" fill-rule="evenodd" clip-rule="evenodd" d="M840.36 213.56H836.05V135.27H840.36V213.56Z" fill="#EDF6FF"/>
<path id="Vector_24" fill-rule="evenodd" clip-rule="evenodd" d="M844.1 213.56H843.02V135.27H844.1V213.56Z" fill="#EDF6FF"/>
</g>
<g id="Group_5">
<path id="Vector_25" fill-rule="evenodd" clip-rule="evenodd" d="M858.74 213.56H854.43V135.27H858.74V213.56Z" fill="#EDF6FF"/>
<path id="Vector_26" fill-rule="evenodd" clip-rule="evenodd" d="M862.48 213.56H861.4V135.27H862.48V213.56Z" fill="#EDF6FF"/>
</g>
<g id="Group_6">
<path id="Vector_27" fill-rule="evenodd" clip-rule="evenodd" d="M904.23 213.56H899.92V135.27H904.23V213.56Z" fill="#EDF6FF"/>
<path id="Vector_28" fill-rule="evenodd" clip-rule="evenodd" d="M907.97 213.56H906.89V135.27H907.97V213.56Z" fill="#EDF6FF"/>
</g>
<g id="Group_7">
<path id="Vector_29" fill-rule="evenodd" clip-rule="evenodd" d="M965.13 213.56H960.82V135.27H965.13V213.56Z" fill="#EDF6FF"/>
<path id="Vector_30" fill-rule="evenodd" clip-rule="evenodd" d="M968.87 213.56H967.79V135.27H968.87V213.56Z" fill="#EDF6FF"/>
</g>
<path id="Vector_31" fill-rule="evenodd" clip-rule="evenodd" d="M985.99 213.56H984.91V135.27H985.99V213.56Z" fill="#EDF6FF"/>
<path id="Vector_32" fill-rule="evenodd" clip-rule="evenodd" d="M1194.65 354.72H1024.31V246.68H1194.65V354.72Z" fill="#FCF5F1"/>
<path id="Vector_33" fill-rule="evenodd" clip-rule="evenodd" d="M797.36 354.73H635.93V134.09H797.36V354.73Z" fill="#E6DFDB"/>
<path id="Vector_34" fill-rule="evenodd" clip-rule="evenodd" d="M1210.58 232.35H1020.41V246.68H1210.58V232.35Z" fill="#808080"/>
<path id="Vector_35" fill-rule="evenodd" clip-rule="evenodd" d="M1162.13 128.27H1024.31V138.01H1162.13V128.27Z" fill="#666666"/>
<g id="Group_8">
<path id="Vector_36" fill-rule="evenodd" clip-rule="evenodd" d="M1176.94 354.72H1042.02V260.19H1176.94V354.72Z" fill="#666666"/>
<path id="Vector_37" fill-rule="evenodd" clip-rule="evenodd" d="M1170.82 290.44H1048.14V266.56H1170.82V290.44Z" fill="#E3C485"/>
<path id="Vector_38" fill-rule="evenodd" clip-rule="evenodd" d="M1170.82 322.58H1048.14V295.78H1170.82V322.58Z" fill="#E3C485"/>
<path id="Vector_39" fill-rule="evenodd" clip-rule="evenodd" d="M1170.82 349.72H1048.14V327.92H1170.82V349.72Z" fill="#E3C485"/>
</g>
<path id="Vector_40" d="M880.18 305.29H876.92V319.9H880.18V305.29Z" fill="#666666"/>
<g id="Group_9">
<path id="Vector_41" d="M1128.35 155.25H1042.24V203.36H1128.35V155.25Z" fill="#666666"/>
<path id="Vector_42" fill-rule="evenodd" clip-rule="evenodd" d="M1046.15 199.45V159.17H1124.44V199.45H1046.15Z" fill="#E0F0FF"/>
<path id="Vector_43" fill-rule="evenodd" clip-rule="evenodd" d="M1046.15 171.67V167.36H1124.44V171.67H1046.15Z" fill="#EDF6FF"/>
<path id="Vector_44" fill-rule="evenodd" clip-rule="evenodd" d="M1046.15 175.41V174.33H1124.44V175.41H1046.15Z" fill="#EDF6FF"/>
<path id="Vector_45" fill-rule="evenodd" clip-rule="evenodd" d="M1046.15 192.53V191.45H1124.44V192.53H1046.15Z" fill="#EDF6FF"/>
</g>
<g id="Group_10">
<path id="Vector_46" d="M759.7 276.65H673.59V324.76H759.7V276.65Z" fill="#666666"/>
<path id="Vector_47" fill-rule="evenodd" clip-rule="evenodd" d="M677.5 320.85V280.56H755.79V320.85H677.5Z" fill="#E0F0FF"/>
<path id="Vector_48" fill-rule="evenodd" clip-rule="evenodd" d="M677.5 293.07V288.76H755.79V293.07H677.5Z" fill="#EDF6FF"/>
<path id="Vector_49" fill-rule="evenodd" clip-rule="evenodd" d="M677.5 296.8V295.73H755.79V296.8H677.5Z" fill="#EDF6FF"/>
<path id="Vector_50" fill-rule="evenodd" clip-rule="evenodd" d="M677.5 313.92V312.85H755.79V313.92H677.5Z" fill="#EDF6FF"/>
</g>
<g id="Group_11">
<path id="Vector_51" d="M759.7 158.68H673.59V206.79H759.7V158.68Z" fill="#666666"/>
<path id="Vector_52" fill-rule="evenodd" clip-rule="evenodd" d="M677.5 202.88V162.59H755.79V202.88H677.5Z" fill="#E0F0FF"/>
<path id="Vector_53" fill-rule="evenodd" clip-rule="evenodd" d="M677.5 175.1V170.79H755.79V175.1H677.5Z" fill="#EDF6FF"/>
<path id="Vector_54" fill-rule="evenodd" clip-rule="evenodd" d="M677.5 178.84V177.76H755.79V178.84H677.5Z" fill="#EDF6FF"/>
<path id="Vector_55" fill-rule="evenodd" clip-rule="evenodd" d="M677.5 195.96V194.88H755.79V195.96H677.5Z" fill="#EDF6FF"/>
</g>
<g id="Group_12">
<g id="Group_13">
<g id="Group_14">
<path id="Vector_56" fill-rule="evenodd" clip-rule="evenodd" d="M919.08 343.61C903.88 321.81 928 304.95 907.89 281.67C930.61 297.8 908.64 322.69 922.2 340.81C922.97 341.67 922.9 343 922.04 343.77C921.18 344.54 919.85 344.47 919.08 343.61Z" fill="#006837"/>
<path id="Vector_57" fill-rule="evenodd" clip-rule="evenodd" d="M916.85 342.16C915.86 326.03 913.94 323.16 903.06 311.58C910.51 324.32 912.73 327.02 912.66 341.88C912.58 343.03 913.46 344.04 914.61 344.11C915.77 344.19 916.77 343.31 916.84 342.16H916.85Z" fill="#006837"/>
<path id="Vector_58" fill-rule="evenodd" clip-rule="evenodd" d="M912.6 343.86C909.6 335.56 908.48 330.94 902.11 325C909.5 327.85 912.24 335.91 915.29 342.8C915.58 343.54 915.22 344.38 914.48 344.68C913.74 344.97 912.9 344.61 912.6 343.87V343.86Z" fill="#006837"/>
<path id="Vector_59" fill-rule="evenodd" clip-rule="evenodd" d="M915.11 334.28C916.1 318.15 918.02 315.28 928.9 303.7C921.45 316.44 919.24 319.14 919.3 334C919.38 335.16 918.5 336.16 917.35 336.23C916.19 336.31 915.19 335.43 915.12 334.28H915.11Z" fill="#006837"/>
<path id="Vector_60" fill-rule="evenodd" clip-rule="evenodd" d="M917.55 344.03C920.55 335.74 921.67 331.11 928.04 325.17C920.65 328.02 917.91 336.09 914.86 342.97C914.57 343.71 914.93 344.55 915.67 344.85C916.41 345.14 917.25 344.78 917.55 344.04V344.03Z" fill="#006837"/>
</g>
<g id="Group_15">
<path id="Vector_61" fill-rule="evenodd" clip-rule="evenodd" d="M939.97 343.72C950.3 319.24 923.21 307.76 938.04 280.8C919.17 301.3 945.83 321.08 936.33 341.62C935.75 342.62 936.1 343.91 937.1 344.48C938.1 345.06 939.39 344.71 939.96 343.71L939.97 343.72Z" fill="#006837"/>
<path id="Vector_62" fill-rule="evenodd" clip-rule="evenodd" d="M938.83 342.16C937.84 326.03 935.92 323.16 925.04 311.58C932.49 324.32 934.71 327.02 934.64 341.88C934.56 343.03 935.44 344.04 936.59 344.11C937.75 344.19 938.75 343.31 938.82 342.16H938.83Z" fill="#006837"/>
<path id="Vector_63" fill-rule="evenodd" clip-rule="evenodd" d="M934.58 343.86C931.58 335.56 930.46 330.94 924.09 325C931.48 327.85 934.22 335.91 937.27 342.8C937.56 343.54 937.2 344.38 936.46 344.68C935.72 344.97 934.88 344.61 934.58 343.87V343.86Z" fill="#006837"/>
<path id="Vector_64" fill-rule="evenodd" clip-rule="evenodd" d="M937.08 334.28C938.07 318.15 939.99 315.28 950.87 303.7C943.42 316.44 941.21 319.14 941.27 334C941.35 335.16 940.47 336.16 939.32 336.23C938.16 336.31 937.16 335.43 937.09 334.28H937.08Z" fill="#006837"/>
<path id="Vector_65" fill-rule="evenodd" clip-rule="evenodd" d="M939.52 344.03C942.52 335.74 943.64 331.11 950.01 325.17C942.62 328.02 939.88 336.09 936.83 342.97C936.54 343.71 936.9 344.55 937.64 344.85C938.38 345.14 939.22 344.78 939.52 344.04V344.03Z" fill="#006837"/>
</g>
<g id="Group_16">
<path id="Vector_66" fill-rule="evenodd" clip-rule="evenodd" d="M951.7 343.76C938.2 324.4 959.63 309.41 941.76 288.73C961.94 303.06 942.43 325.17 954.47 341.27C955.16 342.04 955.09 343.21 954.33 343.9C953.56 344.59 952.39 344.52 951.7 343.76Z" fill="#006837"/>
<path id="Vector_67" fill-rule="evenodd" clip-rule="evenodd" d="M949.72 342.47C948.84 328.14 947.14 325.59 937.47 315.3C944.09 326.62 946.06 329.01 946 342.22C945.93 343.25 946.71 344.13 947.73 344.2C948.76 344.27 949.64 343.49 949.71 342.47H949.72Z" fill="#006837"/>
<path id="Vector_68" fill-rule="evenodd" clip-rule="evenodd" d="M945.95 343.98C943.28 336.61 942.29 332.5 936.63 327.22C943.2 329.75 945.63 336.92 948.34 343.03C948.6 343.69 948.28 344.44 947.62 344.7C946.96 344.96 946.21 344.64 945.95 343.98Z" fill="#006837"/>
<path id="Vector_69" fill-rule="evenodd" clip-rule="evenodd" d="M948.17 335.47C949.05 321.14 950.75 318.59 960.42 308.3C953.8 319.62 951.83 322.01 951.89 335.22C951.96 336.25 951.18 337.13 950.16 337.2C949.13 337.27 948.25 336.49 948.18 335.47H948.17Z" fill="#006837"/>
<path id="Vector_70" fill-rule="evenodd" clip-rule="evenodd" d="M950.34 344.13C953.01 336.76 954 332.65 959.66 327.37C953.09 329.9 950.66 337.07 947.95 343.18C947.69 343.84 948.01 344.59 948.67 344.85C949.33 345.11 950.08 344.79 950.34 344.13Z" fill="#006837"/>
</g>
<g id="Group_17">
<path id="Vector_71" fill-rule="evenodd" clip-rule="evenodd" d="M923.7 343.83C936.4 325.62 916.24 311.53 933.05 292.07C914.07 305.55 932.42 326.34 921.09 341.49C920.44 342.21 920.5 343.32 921.22 343.96C921.94 344.61 923.05 344.55 923.69 343.83H923.7Z" fill="#006837"/>
<path id="Vector_72" fill-rule="evenodd" clip-rule="evenodd" d="M925.56 342.62C926.39 329.14 927.99 326.74 937.08 317.07C930.86 327.72 929 329.97 929.06 342.39C929.13 343.35 928.4 344.19 927.43 344.26C926.46 344.32 925.63 343.6 925.56 342.63V342.62Z" fill="#006837"/>
<path id="Vector_73" fill-rule="evenodd" clip-rule="evenodd" d="M929.11 344.04C931.62 337.11 932.55 333.25 937.88 328.28C931.71 330.66 929.41 337.4 926.86 343.15C926.61 343.77 926.92 344.47 927.54 344.72C928.16 344.96 928.86 344.66 929.11 344.04Z" fill="#006837"/>
<path id="Vector_74" fill-rule="evenodd" clip-rule="evenodd" d="M927.02 336.03C926.19 322.55 924.59 320.15 915.5 310.48C921.72 321.13 923.58 323.38 923.52 335.8C923.45 336.77 924.18 337.6 925.15 337.67C926.12 337.73 926.95 337.01 927.02 336.04V336.03Z" fill="#006837"/>
<path id="Vector_75" fill-rule="evenodd" clip-rule="evenodd" d="M924.98 344.18C922.47 337.25 921.54 333.39 916.21 328.42C922.39 330.8 924.68 337.54 927.23 343.29C927.48 343.91 927.17 344.61 926.55 344.86C925.93 345.1 925.23 344.8 924.98 344.18Z" fill="#006837"/>
</g>
<g id="Group_18">
<path id="Vector_76" fill-rule="evenodd" clip-rule="evenodd" d="M959.49 343.61C944.29 321.81 968.41 304.95 948.3 281.67C971.02 297.8 949.05 322.69 962.61 340.81C963.38 341.67 963.31 343 962.45 343.77C961.59 344.54 960.26 344.47 959.49 343.61Z" fill="#006837"/>
<path id="Vector_77" fill-rule="evenodd" clip-rule="evenodd" d="M957.27 342.16C956.28 326.03 954.36 323.16 943.48 311.58C950.93 324.32 953.15 327.02 953.08 341.88C953 343.03 953.88 344.04 955.03 344.11C956.19 344.19 957.19 343.31 957.26 342.16H957.27Z" fill="#006837"/>
<path id="Vector_78" fill-rule="evenodd" clip-rule="evenodd" d="M953.02 343.86C950.02 335.56 948.9 330.94 942.53 325C949.92 327.85 952.66 335.91 955.71 342.8C956 343.54 955.64 344.38 954.9 344.68C954.16 344.97 953.32 344.61 953.02 343.87V343.86Z" fill="#006837"/>
<path id="Vector_79" fill-rule="evenodd" clip-rule="evenodd" d="M955.52 334.28C956.51 318.15 958.43 315.28 969.31 303.7C961.86 316.44 959.65 319.14 959.71 334C959.79 335.16 958.91 336.16 957.76 336.23C956.6 336.31 955.6 335.43 955.53 334.28H955.52Z" fill="#006837"/>
<path id="Vector_80" fill-rule="evenodd" clip-rule="evenodd" d="M957.97 344.03C960.97 335.74 962.09 331.11 968.46 325.17C961.07 328.02 958.33 336.09 955.28 342.97C954.99 343.71 955.35 344.55 956.09 344.85C956.83 345.14 957.67 344.78 957.97 344.04V344.03Z" fill="#006837"/>
</g>
<g id="Group_19">
<path id="Vector_81" fill-rule="evenodd" clip-rule="evenodd" d="M980.38 343.72C990.71 319.24 963.62 307.76 978.45 280.8C959.58 301.3 986.24 321.08 976.74 341.62C976.16 342.62 976.51 343.91 977.51 344.48C978.51 345.06 979.8 344.71 980.37 343.71L980.38 343.72Z" fill="#006837"/>
<path id="Vector_82" fill-rule="evenodd" clip-rule="evenodd" d="M979.24 342.16C978.25 326.03 976.33 323.16 965.45 311.58C972.9 324.32 975.12 327.02 975.05 341.88C974.97 343.03 975.85 344.04 977 344.11C978.16 344.19 979.16 343.31 979.23 342.16H979.24Z" fill="#006837"/>
<path id="Vector_83" fill-rule="evenodd" clip-rule="evenodd" d="M974.99 343.86C971.99 335.56 970.87 330.94 964.5 325C971.89 327.85 974.63 335.91 977.68 342.8C977.97 343.54 977.61 344.38 976.87 344.68C976.13 344.97 975.29 344.61 974.99 343.87V343.86Z" fill="#006837"/>
<path id="Vector_84" fill-rule="evenodd" clip-rule="evenodd" d="M977.5 334.28C978.49 318.15 980.41 315.28 991.29 303.7C983.84 316.44 981.63 319.14 981.69 334C981.77 335.16 980.89 336.16 979.74 336.23C978.58 336.31 977.58 335.43 977.51 334.28H977.5Z" fill="#006837"/>
<path id="Vector_85" fill-rule="evenodd" clip-rule="evenodd" d="M979.94 344.03C982.94 335.74 984.06 331.11 990.43 325.17C983.04 328.02 980.3 336.09 977.25 342.97C976.96 343.71 977.32 344.55 978.06 344.85C978.8 345.14 979.64 344.78 979.94 344.04V344.03Z" fill="#006837"/>
</g>
<g id="Group_20">
<path id="Vector_86" fill-rule="evenodd" clip-rule="evenodd" d="M992.12 343.76C978.62 324.4 1000.05 309.41 982.18 288.73C1002.36 303.06 982.85 325.17 994.89 341.27C995.58 342.04 995.51 343.21 994.75 343.9C993.98 344.59 992.81 344.52 992.12 343.76Z" fill="#006837"/>
<path id="Vector_87" fill-rule="evenodd" clip-rule="evenodd" d="M990.14 342.47C989.26 328.14 987.56 325.59 977.89 315.3C984.51 326.62 986.48 329.01 986.42 342.22C986.35 343.25 987.13 344.13 988.15 344.2C989.18 344.27 990.06 343.49 990.13 342.47H990.14Z" fill="#006837"/>
<path id="Vector_88" fill-rule="evenodd" clip-rule="evenodd" d="M986.37 343.98C983.7 336.61 982.71 332.5 977.05 327.22C983.62 329.75 986.05 336.92 988.76 343.03C989.02 343.69 988.7 344.44 988.04 344.7C987.38 344.96 986.63 344.64 986.37 343.98Z" fill="#006837"/>
<path id="Vector_89" fill-rule="evenodd" clip-rule="evenodd" d="M988.59 335.47C989.47 321.14 991.17 318.59 1000.84 308.3C994.22 319.62 992.25 322.01 992.31 335.22C992.38 336.25 991.6 337.13 990.58 337.2C989.55 337.27 988.67 336.49 988.6 335.47H988.59Z" fill="#006837"/>
<path id="Vector_90" fill-rule="evenodd" clip-rule="evenodd" d="M990.76 344.13C993.43 336.76 994.42 332.65 1000.08 327.37C993.51 329.9 991.08 337.07 988.37 343.18C988.11 343.84 988.43 344.59 989.09 344.85C989.75 345.11 990.5 344.79 990.76 344.13Z" fill="#006837"/>
</g>
<g id="Group_21">
<path id="Vector_91" fill-rule="evenodd" clip-rule="evenodd" d="M964.12 343.83C976.82 325.62 956.66 311.53 973.47 292.07C954.49 305.55 972.84 326.34 961.51 341.49C960.86 342.21 960.92 343.32 961.64 343.96C962.36 344.61 963.47 344.55 964.11 343.83H964.12Z" fill="#006837"/>
<path id="Vector_92" fill-rule="evenodd" clip-rule="evenodd" d="M965.98 342.62C966.81 329.14 968.41 326.74 977.5 317.07C971.28 327.72 969.42 329.97 969.48 342.39C969.55 343.35 968.82 344.19 967.85 344.26C966.88 344.32 966.05 343.6 965.98 342.63V342.62Z" fill="#006837"/>
<path id="Vector_93" fill-rule="evenodd" clip-rule="evenodd" d="M969.53 344.04C972.04 337.11 972.97 333.25 978.3 328.28C972.13 330.66 969.83 337.4 967.29 343.15C967.04 343.77 967.35 344.47 967.97 344.72C968.59 344.96 969.29 344.66 969.54 344.04H969.53Z" fill="#006837"/>
<path id="Vector_94" fill-rule="evenodd" clip-rule="evenodd" d="M967.44 336.03C966.61 322.55 965.01 320.15 955.92 310.48C962.14 321.13 964 323.38 963.94 335.8C963.87 336.77 964.6 337.6 965.57 337.67C966.54 337.73 967.37 337.01 967.44 336.04V336.03Z" fill="#006837"/>
<path id="Vector_95" fill-rule="evenodd" clip-rule="evenodd" d="M965.4 344.18C962.89 337.25 961.96 333.39 956.63 328.42C962.81 330.8 965.1 337.54 967.65 343.29C967.9 343.91 967.59 344.61 966.97 344.86C966.35 345.1 965.65 344.8 965.4 344.18Z" fill="#006837"/>
</g>
</g>
<path id="Vector_96" d="M999.05 339.17H903.89V354.73H999.05V339.17Z" fill="#666666"/>
</g>
<path id="Vector_97" d="M1200.74 354.73H628.76V371.82H1200.74V354.73Z" fill="#4D4D4D"/>
</g>
<g id="bedroom">
<path id="Vector_98" d="M1010.86 232.44V116.57V106.84H1025.5L910.495 54L795.5 106.84H810.142V116.57V232.44H825.287H1010.86Z" fill="white"/>
<g id="Group_22">
<path id="Vector_99" d="M1010.86 159.36H810.142V225.28H1010.86V159.36Z" fill="#C5E8E5"/>
<path id="Vector_100" d="M1010.86 156.25H810.142V159.36H1010.86V156.25Z" fill="#B3D4D1"/>
<g id="Group_23">
<path id="Vector_101" d="M1010.86 225.28H810.142V232.45H1010.86V225.28Z" fill="#E3C485"/>
<path id="Vector_102" d="M896.929 228.86H846.355V232.44H896.929V228.86Z" fill="#FFEDC7"/>
<path id="Vector_103" d="M947.834 228.86H897.261V232.44H947.834V228.86Z" fill="#C4A870"/>
<path id="Vector_104" d="M1010.86 225.28H961.853V228.86H1010.86V225.28Z" fill="#C4A870"/>
<path id="Vector_105" d="M961.853 225.28H911.279V228.86H961.853V225.28Z" fill="#FFEDC7"/>
<path id="Vector_106" d="M1010.86 228.86H998.408V232.44H1010.86V228.86Z" fill="#FFEDC7"/>
<path id="Vector_107" d="M860.716 225.28H810.142V228.86H860.716V225.28Z" fill="#C4A870"/>
</g>
<g id="Group_24">
<path id="Vector_108" d="M958.223 171.66H862.787V196.77H958.223V171.66Z" fill="#808080"/>
<path id="Vector_109" d="M861.118 201.9V221.73V225.28H870.802V221.73H950.198V225.28H959.882V221.73V201.9H861.118Z" fill="#919191"/>
<path id="Vector_110" d="M958.876 194.15H862.124C861.568 194.15 861.118 194.598 861.118 195.15V208.66C861.118 209.212 861.568 209.66 862.124 209.66H958.876C959.432 209.66 959.882 209.212 959.882 208.66V195.15C959.882 194.598 959.432 194.15 958.876 194.15Z" fill="#FBB03B"/>
<g id="Group_25">
<path id="Vector_111" d="M867.564 181.75H908.494C909.6 181.75 910.505 182.65 910.505 183.75V191.7C910.505 192.25 910.053 192.7 909.499 192.7H866.559C866.006 192.7 865.553 192.25 865.553 191.7V183.75C865.553 182.65 866.458 181.75 867.564 181.75Z" fill="#FF7543"/>
<path id="Vector_112" d="M912.506 181.75H953.436C954.542 181.75 955.447 182.65 955.447 183.75V191.7C955.447 192.25 954.995 192.7 954.442 192.7H911.501C910.948 192.7 910.495 192.25 910.495 191.7V183.75C910.495 182.65 911.4 181.75 912.506 181.75Z" fill="#FF7543"/>
</g>
<path id="Vector_113" d="M960.686 217.24C960.244 217.24 959.892 216.89 959.892 216.45V197.58C959.892 195.69 958.343 194.15 956.443 194.15H864.567C862.667 194.15 861.118 195.69 861.118 197.58V216.45C861.118 216.89 860.766 217.24 860.324 217.24C859.881 217.24 859.529 216.89 859.529 216.45V197.58C859.529 194.81 861.792 192.56 864.577 192.56H956.453C959.238 192.56 961.501 194.81 961.501 197.58V216.45C961.501 216.89 961.149 217.24 960.707 217.24H960.686Z" fill="#F7931E"/>
</g>
<g id="Group_26">
<path id="Vector_114" d="M992.968 225.28H990.393L987.286 209.17H989.86L992.968 225.28Z" fill="#919191"/>
<path id="Vector_115" d="M974.755 225.28L977.873 209.17H975.288L972.181 225.28" fill="#919191"/>
</g>
<path id="Vector_116" d="M993.943 196.18H971.195V210.18H993.943V196.18Z" fill="#E3C485"/>
<path id="Vector_117" d="M992.012 197.97H973.126V208.38H992.012V197.97Z" fill="#C4A870"/>
<path id="Vector_118" d="M983.907 203.18C983.907 203.91 983.313 204.51 982.569 204.51C981.825 204.51 981.232 203.92 981.232 203.18C981.232 202.44 981.825 201.85 982.569 201.85C983.313 201.85 983.907 202.44 983.907 203.18Z" fill="#919191"/>
<path id="Vector_119" d="M982.348 193.9V196.18H992.082V193.9H982.348Z" fill="#FF7BAC"/>
<path id="Vector_120" d="M983.152 191.28V193.91H991.278V191.28H983.152Z" fill="#C1272D"/>
<path id="Vector_121" d="M984.229 189.95V191.27H993.249V189.95H984.229Z" fill="#4A6680"/>
<path id="Vector_122" d="M982.257 188.63V189.95H991.278V188.63H982.257Z" fill="#FF931E"/>
<g id="Group_27">
<path id="Vector_123" d="M834.278 159.36H831.08V225.51H834.278V159.36Z" fill="#919191"/>
<path id="Vector_124" d="M838.562 225.51H826.806C826.806 223.84 829.44 222.48 832.689 222.48C835.937 222.48 838.572 223.84 838.572 225.51H838.562Z" fill="#919191"/>
<path id="Vector_125" d="M840.432 149.97H824.935V174.67H840.432V149.97Z" fill="#FFEDC7"/>
</g>
<g id="Group_28">
<path id="Vector_126" d="M978.064 182.77H976.505V196.18H978.064V182.77Z" fill="#919191"/>
<path id="Vector_127" d="M980.156 196.18H974.423C974.423 195.36 975.711 194.7 977.289 194.7C978.868 194.7 980.156 195.36 980.156 196.18Z" fill="#919191"/>
<path id="Vector_128" d="M981.061 174.4H973.508V186.44H981.061V174.4Z" fill="#FFEDC7"/>
</g>
<g id="Group_29">
<path id="Vector_129" d="M958.223 111.18H862.787V141.34H958.223V111.18Z" fill="#C4A870"/>
<path id="Vector_130" d="M954.743 114.02H866.257V138.5H954.743V114.02Z" fill="white"/>
<path id="Vector_131" d="M943.048 120.02H877.952V132.51H943.048V120.02Z" fill="#00A99D"/>
</g>
</g>
</g>
<g id="border">
<path id="border_2" d="M1212.99 232.161L1148.43 206.025V137.93H1164.34V128.188H1164.31V128.168L1069.46 89.76V89.74H1069.43H1069.41V89.7501L1039.65 101.803L912.243 43.17L912.162 43L912.022 43.07L911.881 43L911.801 43.17L801.42 93.971L748.133 72.3963V72.3763H748.103H748.083V72.3863L620 124.237V133.98H635.995V369H650.384H1197V366.54V246.594H1213V232.261H1212.95L1213 232.131L1212.99 232.161ZM650.374 134.01V124.267H645.936L748.103 82.9086L789.261 99.5722L773.918 106.634V106.654V116.396H798.067V232.291H650.374V134.01ZM811.813 116.386V106.644H797.193L912.012 53.8023L1026.83 106.644H1012.21V116.386V232.281H811.803V116.386H811.813ZM1025.96 116.386H1050.11V108.084L1069.43 100.262L1138.39 128.178H1134.03V137.92V232.281H1025.95V116.386H1025.96ZM650.374 354.687V246.624H798.067V354.687H811.803V246.624H826.924H1012.21V354.687H1025.95V246.624H1148.42V216.537L1187.33 232.291H1182.6V246.624V354.687H798.067H650.374Z" fill="#4D4D4D"/>
</g>
<g id="bathroom">
<g id="Group_30">
<path id="Vector_132" d="M649.67 236.22L796.76 236.22V229.05L649.67 229.05V236.22Z" fill="#425B73"/>
<path id="Vector_133" d="M746.13 232.64H796.75V229.06H746.13V232.64Z" fill="#51708C"/>
<path id="Vector_134" d="M695.84 232.64H746.13V229.06H695.84V232.64Z" fill="#4A6680"/>
<path id="Vector_135" d="M649.67 236.23H681.91V232.65H649.67V236.23Z" fill="#4A6680"/>
<path id="Vector_136" d="M681.9 236.23H732.19V232.65H681.9V236.23Z" fill="#51708C"/>
<path id="Vector_137" d="M782.49 236.23H796.76V232.65H782.49V236.23Z" fill="#4A6680"/>
</g>
<g id="Group_31">
<g id="Group_32">
<path id="Vector_138" d="M796.28 102.73H775.82V97.23H786.36L785.15 96.74H765.36V91.23H771.45L770.24 90.74H754.89V85.24H756.54L755.33 84.75H744.42V83.64L743.93 83.84V84.75H741.67L740.46 85.24H754.4V90.74H733.94V87.87L733.45 88.07V90.75H726.82L725.61 91.24H743.92V96.75H723.46V92.11L722.97 92.31V96.75H711.97L710.76 97.24H712.49V102.74H697.13L695.92 103.23H702.02V108.73H682.29L681.08 109.22H691.54V114.73H671.08V113.26L670.59 113.46V114.73H667.44L666.23 115.22H681.06V120.72H660.6V117.49L660.11 117.69V120.72H652.59L651.38 121.21H670.58V126.72H650.12V121.72L649.64 121.91V127.2H660.11V132.7H649.64V139.18H660.11V144.69H649.64V145.18H796.73V144.69H786.26V139.18H796.73V132.7H786.26V127.2H796.73V120.72H786.26V115.22H796.73V108.74H786.26V103.24H796.73V101.43L796.25 101.24V102.76L796.28 102.73ZM775.82 103.21H785.81V108.71H765.35V103.21H775.82ZM692.04 126.7V121.19H712.5V126.7H692.04ZM702.02 127.18V132.68H681.56V127.18H702.02ZM754.87 114.71V109.2H775.33V114.71H754.87ZM764.86 115.2V120.7H744.4V115.2H764.86ZM764.86 108.72H744.4V103.22H764.86V108.72ZM754.38 109.21V114.72H733.92V109.21H754.38ZM743.91 115.2V120.7H723.45V115.2H743.91ZM733.44 114.71H712.98V109.2H733.44V114.71ZM722.97 115.2V120.7H702.51V115.2H722.97ZM702.51 127.18H722.97V132.68H702.51V127.18ZM712.98 126.7V121.19H733.44V126.7H712.98ZM723.45 127.18H743.91V132.68H723.45V127.18ZM733.93 126.7V121.19H754.39V126.7H733.93ZM744.4 127.18H764.86V132.68H744.4V127.18ZM754.87 126.7V121.19H775.33V126.7H754.87ZM765.35 127.18H785.81V132.68H765.35V127.18ZM775.33 120.7H765.35V115.2H785.81V120.7H775.34H775.33ZM765.35 97.22H775.33V102.72H754.87V97.22H765.34H765.35ZM744.4 91.23H764.86V96.74H744.4V91.23ZM733.93 97.22H754.39V102.72H733.93V97.22ZM733.93 103.21H743.92V108.71H723.46V103.21H733.93ZM712.98 97.22H733.44V102.72H712.98V97.22ZM702.51 103.21H722.97V108.71H702.51V103.21ZM692.04 109.21H712.5V114.72H692.04V109.21ZM681.56 115.2H702.02V120.7H681.56V115.2ZM671.09 121.19H691.55V126.7H671.09V121.19ZM660.62 127.18H681.08V132.68H660.62V127.18ZM660.13 138.68H650.14V133.18H670.6V138.68H660.13ZM681.08 144.67H660.62V139.16H681.08V144.67ZM681.08 138.68H671.09V133.18H691.55V138.68H681.08ZM702.02 144.67H681.56V139.16H702.02V144.67ZM702.02 138.68H692.03V133.18H712.49V138.68H702.02ZM722.97 144.67H702.51V139.16H722.97V144.67ZM722.97 138.68H712.98V133.18H733.44V138.68H722.97ZM743.91 144.67H723.45V139.16H743.91V144.67ZM743.91 138.68H733.92V133.18H754.38V138.68H743.91ZM764.86 144.67H744.4V139.16H764.86V144.67ZM764.86 138.68H754.87V133.18H775.33V138.68H764.86ZM785.8 144.67H765.34V139.16H785.8V144.67ZM796.28 133.18V138.68H775.82V133.18H796.28ZM796.28 121.19V126.7H775.82V121.19H796.28ZM796.28 109.21V114.72H775.82V109.21H796.28Z" fill="#B3B3B3"/>
<path id="Vector_139" d="M754.38 84.75H754.87H755.31L748.46 82L744.4 83.64V84.75H754.38Z" fill="#E6E6E6"/>
<path id="Vector_140" d="M743.91 83.83L741.65 84.75H743.91V83.83Z" fill="#E6E6E6"/>
<path id="Vector_141" d="M754.87 90.74H764.86H765.35H770.22L756.53 85.24H754.87V90.74Z" fill="#E6E6E6"/>
<path id="Vector_142" d="M743.91 90.74H744.4H754.38V85.24H744.4H743.91H740.44L733.93 87.87V90.74H743.91Z" fill="#E6E6E6"/>
<path id="Vector_143" d="M733.44 88.06L726.81 90.74H733.44V88.06Z" fill="#E6E6E6"/>
<path id="Vector_144" d="M765.35 96.73H775.33H775.82H785.14L771.44 91.23H765.35V96.73Z" fill="#E6E6E6"/>
<path id="Vector_145" d="M754.87 96.73H764.86V91.23H754.87H754.38H744.4V96.73H754.38H754.87Z" fill="#E6E6E6"/>
<path id="Vector_146" d="M733.44 96.73H733.93H743.91V91.23H733.93H733.44H725.6L723.45 92.1V96.73H733.44Z" fill="#E6E6E6"/>
<path id="Vector_147" d="M712.98 96.73H722.97V92.29L711.97 96.73H712.49H712.98Z" fill="#E6E6E6"/>
<path id="Vector_148" d="M785.8 97.22H775.82V102.73H785.8H786.29H796.28V101.21L786.35 97.22H786.29H785.8Z" fill="#E6E6E6"/>
<path id="Vector_149" d="M754.87 97.22V102.73H764.86H765.35H775.33V97.22H765.35H764.86H754.87Z" fill="#E6E6E6"/>
<path id="Vector_150" d="M744.4 102.73H754.38V97.22H744.4H743.91H733.93V102.73H743.91H744.4Z" fill="#E6E6E6"/>
<path id="Vector_151" d="M723.45 102.73H733.44V97.22H723.45H722.97H712.98V102.73H722.97H723.45Z" fill="#E6E6E6"/>
<path id="Vector_152" d="M702.51 102.73H712.49V97.22H710.76L697.13 102.73H702.02H702.51Z" fill="#E6E6E6"/>
<path id="Vector_153" d="M765.35 103.21V108.72H775.33H775.82H785.8V103.21H775.82H775.33H765.35Z" fill="#E6E6E6"/>
<path id="Vector_154" d="M796.76 103.21H786.29V108.71H796.76V103.21Z" fill="#E6E6E6"/>
<path id="Vector_155" d="M754.38 103.21H744.4V108.72H754.38H754.87H764.86V103.21H754.87H754.38Z" fill="#E6E6E6"/>
<path id="Vector_156" d="M723.45 103.21V108.72H733.44H733.93H743.91V103.21H733.93H733.44H723.45Z" fill="#E6E6E6"/>
<path id="Vector_157" d="M712.98 108.72H722.97V103.21H712.98H712.49H702.51V108.72H712.49H712.98Z" fill="#E6E6E6"/>
<path id="Vector_158" d="M692.04 108.72H702.02V103.21H695.92L682.29 108.72H691.55H692.04Z" fill="#E6E6E6"/>
<path id="Vector_159" d="M785.8 109.21H775.82V114.71H785.8H786.29H796.28V109.21H786.29H785.8Z" fill="#E6E6E6"/>
<path id="Vector_160" d="M765.35 114.71H775.33V109.21H765.35H764.86H754.87V114.71H764.86H765.35Z" fill="#E6E6E6"/>
<path id="Vector_161" d="M743.91 109.21H733.93V114.71H743.91H744.4H754.38V109.21H744.4H743.91Z" fill="#E6E6E6"/>
<path id="Vector_162" d="M722.97 109.21H712.98V114.71H722.97H723.45H733.44V109.21H723.45H722.97Z" fill="#E6E6E6"/>
<path id="Vector_163" d="M702.51 114.71H712.49V109.21H702.51H702.02H692.04V114.71H702.02H702.51Z" fill="#E6E6E6"/>
<path id="Vector_164" d="M681.08 114.71H681.56H691.55V109.21H681.56H681.09L671.09 113.24V114.71H681.08Z" fill="#E6E6E6"/>
<path id="Vector_165" d="M670.6 113.44L667.45 114.71H670.6V113.44Z" fill="#E6E6E6"/>
<path id="Vector_166" d="M785.8 120.7V115.2H775.82H775.33H765.35V120.7H775.33H775.82H785.8Z" fill="#E6E6E6"/>
<path id="Vector_167" d="M796.76 115.2H786.29V120.7H796.76V115.2Z" fill="#E6E6E6"/>
<path id="Vector_168" d="M754.38 115.2H744.4V120.7H754.38H754.87H764.86V115.2H754.87H754.38Z" fill="#E6E6E6"/>
<path id="Vector_169" d="M733.44 115.2H723.45V120.7H733.44H733.93H743.91V115.2H733.93H733.44Z" fill="#E6E6E6"/>
<path id="Vector_170" d="M712.49 115.2H702.51V120.7H712.49H712.98H722.97V115.2H712.98H712.49Z" fill="#E6E6E6"/>
<path id="Vector_171" d="M692.04 120.7H702.02V115.2H692.04H691.55H681.56V120.7H691.55H692.04Z" fill="#E6E6E6"/>
<path id="Vector_172" d="M670.6 120.7H671.09H681.08V115.2H671.09H670.6H666.24L660.62 117.47V120.7H670.6Z" fill="#E6E6E6"/>
<path id="Vector_173" d="M660.13 120.7V117.67L652.61 120.7H660.13Z" fill="#E6E6E6"/>
<path id="Vector_174" d="M785.8 121.19H775.82V126.7H785.8H786.29H796.28V121.19H786.29H785.8Z" fill="#E6E6E6"/>
<path id="Vector_175" d="M765.35 126.7H775.33V121.19H765.35H764.86H754.87V126.7H764.86H765.35Z" fill="#E6E6E6"/>
<path id="Vector_176" d="M744.4 126.7H754.38V121.19H744.4H743.91H733.93V126.7H743.91H744.4Z" fill="#E6E6E6"/>
<path id="Vector_177" d="M723.45 126.7H733.44V121.19H723.45H722.97H712.98V126.7H722.97H723.45Z" fill="#E6E6E6"/>
<path id="Vector_178" d="M702.51 126.7H712.49V121.19H702.51H702.02H692.04V126.7H702.02H702.51Z" fill="#E6E6E6"/>
<path id="Vector_179" d="M681.56 126.7H691.55V121.19H681.56H681.08H671.09V126.7H681.08H681.56Z" fill="#E6E6E6"/>
<path id="Vector_180" d="M650.15 126.7H660.13H660.62H670.6V121.19H660.62H660.13H651.41L650.15 121.7V126.7Z" fill="#E6E6E6"/>
<path id="Vector_181" d="M775.82 132.69H785.8V127.18H775.82H775.33H765.35V132.69H775.33H775.82Z" fill="#E6E6E6"/>
<path id="Vector_182" d="M796.76 127.18H786.29V132.68H796.76V127.18Z" fill="#E6E6E6"/>
<path id="Vector_183" d="M754.87 132.69H764.86V127.18H754.87H754.38H744.4V132.69H754.38H754.87Z" fill="#E6E6E6"/>
<path id="Vector_184" d="M733.93 132.69H743.91V127.18H733.93H733.44H723.45V132.69H733.44H733.93Z" fill="#E6E6E6"/>
<path id="Vector_185" d="M712.98 132.69H722.97V127.18H712.98H712.49H702.51V132.69H712.49H712.98Z" fill="#E6E6E6"/>
<path id="Vector_186" d="M691.55 127.18H681.56V132.69H691.55H692.04H702.02V127.18H692.04H691.55Z" fill="#E6E6E6"/>
<path id="Vector_187" d="M671.09 132.69H681.08V127.18H671.09H670.6H660.62V132.69H670.6H671.09Z" fill="#E6E6E6"/>
<path id="Vector_188" d="M660.13 127.18H649.66V132.68H660.13V127.18Z" fill="#E6E6E6"/>
<path id="Vector_189" d="M785.8 133.18H775.82V138.68H785.8H786.29H796.28V133.18H786.29H785.8Z" fill="#E6E6E6"/>
<path id="Vector_190" d="M775.33 138.68V133.18H765.35H764.86H754.87V138.68H764.86H765.35H775.33Z" fill="#E6E6E6"/>
<path id="Vector_191" d="M754.38 138.68V133.18H744.4H743.91H733.93V138.68H743.91H744.4H754.38Z" fill="#E6E6E6"/>
<path id="Vector_192" d="M733.44 138.68V133.18H723.45H722.97H712.98V138.68H722.97H723.45H733.44Z" fill="#E6E6E6"/>
<path id="Vector_193" d="M712.49 138.68V133.18H702.51H702.02H692.04V138.68H702.02H702.51H712.49Z" fill="#E6E6E6"/>
<path id="Vector_194" d="M691.55 138.68V133.18H681.56H681.08H671.09V138.68H681.08H681.56H691.55Z" fill="#E6E6E6"/>
<path id="Vector_195" d="M670.6 138.68V133.18H660.62H660.13H650.15V138.68H660.13H660.62H670.6Z" fill="#E6E6E6"/>
<path id="Vector_196" d="M775.33 139.17H765.35V144.67H785.8V139.17H775.82H775.33Z" fill="#E6E6E6"/>
<path id="Vector_197" d="M796.76 139.17H786.29V144.68H796.76V139.17Z" fill="#E6E6E6"/>
<path id="Vector_198" d="M754.38 139.17H744.4V144.67H764.86V139.17H754.87H754.38Z" fill="#E6E6E6"/>
<path id="Vector_199" d="M733.44 139.17H723.45V144.67H743.91V139.17H733.93H733.44Z" fill="#E6E6E6"/>
<path id="Vector_200" d="M712.49 139.17H702.51V144.67H722.97V139.17H712.98H712.49Z" fill="#E6E6E6"/>
<path id="Vector_201" d="M691.55 139.17H681.56V144.67H702.02V139.17H692.04H691.55Z" fill="#E6E6E6"/>
<path id="Vector_202" d="M670.6 139.17H660.62V144.67H681.08V139.17H671.09H670.6Z" fill="#E6E6E6"/>
<path id="Vector_203" d="M660.13 139.17H649.66V144.68H660.13V139.17Z" fill="#E6E6E6"/>
<path id="Vector_204" d="M650.72 126.7H646.35V127.19H650.72V126.7Z" fill="#B3B3B3"/>
<path id="Vector_205" d="M649.66 125.81H648.36V126.7H649.66V125.81Z" fill="#E6E6E6"/>
<path id="Vector_206" d="M649.88 127.18H645V129.57H649.88V127.18Z" fill="#E6E6E6"/>
</g>
<g id="Group_33">
<path id="Vector_207" d="M786.29 150.67H796.28V145.16H775.82V150.67H785.8H786.29Z" fill="#E6E6E6"/>
<path id="Vector_208" d="M765.35 150.67H775.33V145.16H754.87V150.67H764.86H765.35Z" fill="#E6E6E6"/>
<path id="Vector_209" d="M744.4 150.67H754.38V145.16H733.93V150.67H743.91H744.4Z" fill="#E6E6E6"/>
<path id="Vector_210" d="M723.45 150.67H733.44V145.16H712.98V150.67H722.97H723.45Z" fill="#E6E6E6"/>
<path id="Vector_211" d="M702.51 150.67H712.49V145.16H692.04V150.67H702.02H702.51Z" fill="#E6E6E6"/>
<path id="Vector_212" d="M681.56 150.67H691.55V145.16H671.09V150.67H681.08H681.56Z" fill="#E6E6E6"/>
<path id="Vector_213" d="M660.62 150.67H670.6V145.16H650.15V150.67H660.13H660.62Z" fill="#E6E6E6"/>
<path id="Vector_214" d="M765.35 151.15V156.66H775.33H775.82H785.8V151.15H775.82H775.33H765.35Z" fill="#E6E6E6"/>
<path id="Vector_215" d="M796.76 151.15H786.29V156.65H796.76V151.15Z" fill="#E6E6E6"/>
<path id="Vector_216" d="M786.29 228.57V223.06H796.76V216.58H786.29V211.08H796.76V204.6H786.29V199.1H796.76V192.62H786.29V187.12H796.76V180.64H786.29V175.13H796.76V168.65H786.29V163.15H796.76V156.67H786.29V151.17H796.76V144.69H649.67V151.17H660.14V156.67H649.67V163.15H660.14V168.65H649.67V175.13H660.14V180.64H649.67V187.12H660.14V192.62H649.67V199.1H660.14V204.6H649.67V211.08H660.14V216.58H649.67V223.06H660.14V228.57H649.67V229.06H796.76V228.57H786.29ZM796.28 205.09V210.6H775.82V205.09H796.28ZM692.04 186.62V181.12H712.5V186.62H692.04ZM702.02 187.11V192.61H681.56V187.11H702.02ZM702.51 187.11H722.97V192.61H702.51V187.11ZM712.98 186.62V181.12H733.44V186.62H712.98ZM723.45 187.11H743.91V192.61H723.45V187.11ZM733.93 186.62V181.12H754.39V186.62H733.93ZM744.4 187.11H764.86V192.61H744.4V187.11ZM754.87 186.62V181.12H775.33V186.62H754.87ZM764.86 174.64H754.87V169.14H775.33V174.64H764.86ZM764.86 175.12V180.63H744.4V175.12H764.86ZM754.38 174.64H733.92V169.14H754.38V174.64ZM743.91 175.12V180.63H723.45V175.12H743.91ZM733.44 174.64H712.98V169.14H733.44V174.64ZM722.97 175.12V180.63H702.51V175.12H722.97ZM712.49 174.64H692.03V169.14H712.49V174.64ZM702.02 175.12V180.63H681.56V175.12H702.02ZM691.55 174.64H671.09V169.14H691.55V174.64ZM681.56 181.12H691.54V186.62H671.08V181.12H681.55H681.56ZM681.56 193.1H691.54V198.61H671.08V193.1H681.55H681.56ZM681.56 199.09H702.02V204.59H681.56V199.09ZM692.04 198.61V193.1H712.5V198.61H692.04ZM702.51 199.09H722.97V204.59H702.51V199.09ZM712.98 198.61V193.1H733.44V198.61H712.98ZM723.45 199.09H743.91V204.59H723.45V199.09ZM733.93 198.61V193.1H754.39V198.61H733.93ZM744.4 199.09H764.86V204.59H744.4V199.09ZM754.87 198.61V193.1H775.33V198.61H754.87ZM765.35 199.09H785.81V204.59H765.35V199.09ZM775.33 192.61H765.35V187.11H785.81V192.61H775.34H775.33ZM775.33 180.63H765.35V175.12H785.81V180.63H775.34H775.33ZM775.33 168.64H765.35V163.14H785.81V168.64H775.34H775.33ZM775.33 162.65H754.87V157.14H775.33V162.65ZM764.86 163.14V168.64H744.4V163.14H764.86ZM754.38 162.65H733.92V157.14H754.38V162.65ZM743.91 163.14V168.64H723.45V163.14H743.91ZM733.44 162.65H712.98V157.14H733.44V162.65ZM722.97 163.14V168.64H702.51V163.14H722.97ZM712.49 162.65H692.03V157.14H712.49V162.65ZM702.02 163.14V168.64H681.56V163.14H702.02ZM691.55 162.65H671.09V157.14H691.55V162.65ZM681.08 163.14V168.64H660.62V163.14H681.08ZM671.09 175.12H681.08V180.63H660.62V175.12H671.09ZM671.09 187.11H681.08V192.61H660.62V187.11H671.09ZM671.09 199.09H681.08V204.59H660.62V199.09H671.09ZM671.09 211.08H681.08V216.58H660.62V211.08H671.09ZM671.09 210.59V205.08H691.55V210.59H671.09ZM681.56 211.08H702.02V216.58H681.56V211.08ZM692.04 210.59V205.08H712.5V210.59H692.04ZM702.51 211.08H722.97V216.58H702.51V211.08ZM712.98 210.59V205.08H733.44V210.59H712.98ZM723.45 211.08H743.91V216.58H723.45V211.08ZM733.93 210.59V205.08H754.39V210.59H733.93ZM744.4 211.08H764.86V216.58H744.4V211.08ZM754.87 210.59V205.08H775.33V210.59H754.87ZM765.35 211.08H785.81V216.58H765.35V211.08ZM796.28 193.1V198.61H775.82V193.1H796.28ZM796.28 181.12V186.62H775.82V181.12H796.28ZM796.28 169.13V174.63H775.82V169.13H796.28ZM796.28 157.15V162.66H775.82V157.15H796.28ZM775.82 145.16H796.28V150.66H775.82V145.16ZM775.82 151.15H785.81V156.65H765.35V151.15H775.82ZM754.87 145.16H775.33V150.66H754.87V145.16ZM754.87 151.15H764.86V156.65H744.4V151.15H754.87ZM733.93 145.16H754.39V150.66H733.93V145.16ZM733.93 151.15H743.92V156.65H723.46V151.15H733.93ZM712.98 145.16H733.44V150.66H712.98V145.16ZM712.98 151.15H722.97V156.65H702.51V151.15H712.98ZM692.04 145.16H712.5V150.66H692.04V145.16ZM692.04 151.15H702.03V156.65H681.57V151.15H692.04ZM671.09 145.16H691.55V150.66H671.09V145.16ZM671.09 151.15H681.08V156.65H660.62V151.15H671.09ZM650.15 150.67V145.17H670.61V150.67H650.15ZM650.15 162.65V157.14H670.61V162.65H650.15ZM650.15 174.64V169.14H670.61V174.64H650.15ZM650.15 186.62V181.12H670.61V186.62H650.15ZM650.15 198.61V193.1H670.61V198.61H650.15ZM650.15 210.59V205.08H670.61V210.59H650.15ZM660.13 222.58H650.14V217.08H670.6V222.58H660.13ZM681.08 228.57H660.62V223.06H681.08V228.57ZM681.08 222.58H671.09V217.08H691.55V222.58H681.08ZM702.02 228.57H681.56V223.06H702.02V228.57ZM702.02 222.58H692.03V217.08H712.49V222.58H702.02ZM722.97 228.57H702.51V223.06H722.97V228.57ZM722.97 222.58H712.98V217.08H733.44V222.58H722.97ZM743.91 228.57H723.45V223.06H743.91V228.57ZM743.91 222.58H733.92V217.08H754.38V222.58H743.91ZM764.86 228.57H744.4V223.06H764.86V228.57ZM764.86 222.58H754.87V217.08H775.33V222.58H764.86ZM785.8 228.57H765.34V223.06H785.8V228.57ZM785.8 222.58H775.81V217.08H796.27V222.58H785.8Z" fill="#B3B3B3"/>
<path id="Vector_217" d="M744.4 151.15V156.66H754.38H754.87H764.86V151.15H754.87H754.38H744.4Z" fill="#E6E6E6"/>
<path id="Vector_218" d="M723.45 151.15V156.66H733.44H733.93H743.91V151.15H733.93H733.44H723.45Z" fill="#E6E6E6"/>
<path id="Vector_219" d="M702.51 151.15V156.66H712.49H712.98H722.97V151.15H712.98H712.49H702.51Z" fill="#E6E6E6"/>
<path id="Vector_220" d="M681.56 151.15V156.66H691.55H692.04H702.02V151.15H692.04H691.55H681.56Z" fill="#E6E6E6"/>
<path id="Vector_221" d="M660.62 151.15V156.66H670.6H671.09H681.08V151.15H671.09H670.6H660.62Z" fill="#E6E6E6"/>
<path id="Vector_222" d="M660.13 151.15H649.66V156.65H660.13V151.15Z" fill="#E6E6E6"/>
<path id="Vector_223" d="M785.8 157.15H775.82V162.65H785.8H786.29H796.28V157.15H786.29H785.8Z" fill="#E6E6E6"/>
<path id="Vector_224" d="M764.86 157.15H754.87V162.65H764.86H765.35H775.33V157.15H765.35H764.86Z" fill="#E6E6E6"/>
<path id="Vector_225" d="M743.91 157.15H733.93V162.65H743.91H744.4H754.38V157.15H744.4H743.91Z" fill="#E6E6E6"/>
<path id="Vector_226" d="M722.97 157.15H712.98V162.65H722.97H723.45H733.44V157.15H723.45H722.97Z" fill="#E6E6E6"/>
<path id="Vector_227" d="M702.02 157.15H692.04V162.65H702.02H702.51H712.49V157.15H702.51H702.02Z" fill="#E6E6E6"/>
<path id="Vector_228" d="M681.08 157.15H671.09V162.65H681.08H681.56H691.55V157.15H681.56H681.08Z" fill="#E6E6E6"/>
<path id="Vector_229" d="M660.62 162.65H670.6V157.15H660.62H660.13H650.15V162.65H660.13H660.62Z" fill="#E6E6E6"/>
<path id="Vector_230" d="M785.8 168.64V163.14H775.82H775.33H765.35V168.64H775.33H775.82H785.8Z" fill="#E6E6E6"/>
<path id="Vector_231" d="M796.76 163.14H786.29V168.64H796.76V163.14Z" fill="#E6E6E6"/>
<path id="Vector_232" d="M754.38 163.14H744.4V168.64H754.38H754.87H764.86V163.14H754.87H754.38Z" fill="#E6E6E6"/>
<path id="Vector_233" d="M733.44 163.14H723.45V168.64H733.44H733.93H743.91V163.14H733.93H733.44Z" fill="#E6E6E6"/>
<path id="Vector_234" d="M712.49 163.14H702.51V168.64H712.49H712.98H722.97V163.14H712.98H712.49Z" fill="#E6E6E6"/>
<path id="Vector_235" d="M691.55 163.14H681.56V168.64H691.55H692.04H702.02V163.14H692.04H691.55Z" fill="#E6E6E6"/>
<path id="Vector_236" d="M670.6 163.14H660.62V168.64H670.6H671.09H681.08V163.14H671.09H670.6Z" fill="#E6E6E6"/>
<path id="Vector_237" d="M660.13 163.14H649.66V168.64H660.13V163.14Z" fill="#E6E6E6"/>
<path id="Vector_238" d="M785.8 169.13H775.82V174.64H785.8H786.29H796.28V169.13H786.29H785.8Z" fill="#E6E6E6"/>
<path id="Vector_239" d="M775.33 174.64V169.13H765.35H764.86H754.87V174.64H764.86H765.35H775.33Z" fill="#E6E6E6"/>
<path id="Vector_240" d="M743.91 169.13H733.93V174.64H743.91H744.4H754.38V169.13H744.4H743.91Z" fill="#E6E6E6"/>
<path id="Vector_241" d="M722.97 169.13H712.98V174.64H722.97H723.45H733.44V169.13H723.45H722.97Z" fill="#E6E6E6"/>
<path id="Vector_242" d="M702.02 169.13H692.04V174.64H702.02H702.51H712.49V169.13H702.51H702.02Z" fill="#E6E6E6"/>
<path id="Vector_243" d="M681.08 169.13H671.09V174.64H681.08H681.56H691.55V169.13H681.56H681.08Z" fill="#E6E6E6"/>
<path id="Vector_244" d="M660.62 174.64H670.6V169.13H660.62H660.13H650.15V174.64H660.13H660.62Z" fill="#E6E6E6"/>
<path id="Vector_245" d="M785.8 180.63V175.12H775.82H775.33H765.35V180.63H775.33H775.82H785.8Z" fill="#E6E6E6"/>
<path id="Vector_246" d="M796.76 175.12H786.29V180.63H796.76V175.12Z" fill="#E6E6E6"/>
<path id="Vector_247" d="M754.38 175.12H744.4V180.63H754.38H754.87H764.86V175.12H754.87H754.38Z" fill="#E6E6E6"/>
<path id="Vector_248" d="M733.44 175.12H723.45V180.63H733.44H733.93H743.91V175.12H733.93H733.44Z" fill="#E6E6E6"/>
<path id="Vector_249" d="M712.49 175.12H702.51V180.63H712.49H712.98H722.97V175.12H712.98H712.49Z" fill="#E6E6E6"/>
<path id="Vector_250" d="M691.55 175.12H681.56V180.63H691.55H692.04H702.02V175.12H692.04H691.55Z" fill="#E6E6E6"/>
<path id="Vector_251" d="M660.62 175.12V180.63H670.6H671.09H681.08V175.12H671.09H670.6H660.62Z" fill="#E6E6E6"/>
<path id="Vector_252" d="M660.13 175.12H649.66V180.63H660.13V175.12Z" fill="#E6E6E6"/>
<path id="Vector_253" d="M785.8 181.12H775.82V186.62H785.8H786.29H796.28V181.12H786.29H785.8Z" fill="#E6E6E6"/>
<path id="Vector_254" d="M765.35 186.62H775.33V181.12H765.35H764.86H754.87V186.62H764.86H765.35Z" fill="#E6E6E6"/>
<path id="Vector_255" d="M744.4 186.62H754.38V181.12H744.4H743.91H733.93V186.62H743.91H744.4Z" fill="#E6E6E6"/>
<path id="Vector_256" d="M723.45 186.62H733.44V181.12H723.45H722.97H712.98V186.62H722.97H723.45Z" fill="#E6E6E6"/>
<path id="Vector_257" d="M702.51 186.62H712.49V181.12H702.51H702.02H692.04V186.62H702.02H702.51Z" fill="#E6E6E6"/>
<path id="Vector_258" d="M671.09 181.12V186.62H681.08H681.56H691.55V181.12H681.56H681.08H671.09Z" fill="#E6E6E6"/>
<path id="Vector_259" d="M660.62 186.62H670.6V181.12H660.62H660.13H650.15V186.62H660.13H660.62Z" fill="#E6E6E6"/>
<path id="Vector_260" d="M785.8 192.61V187.11H775.82H775.33H765.35V192.61H775.33H775.82H785.8Z" fill="#E6E6E6"/>
<path id="Vector_261" d="M796.76 187.11H786.29V192.61H796.76V187.11Z" fill="#E6E6E6"/>
<path id="Vector_262" d="M754.87 192.61H764.86V187.11H754.87H754.38H744.4V192.61H754.38H754.87Z" fill="#E6E6E6"/>
<path id="Vector_263" d="M733.93 192.61H743.91V187.11H733.93H733.44H723.45V192.61H733.44H733.93Z" fill="#E6E6E6"/>
<path id="Vector_264" d="M712.98 192.61H722.97V187.11H712.98H712.49H702.51V192.61H712.49H712.98Z" fill="#E6E6E6"/>
<path id="Vector_265" d="M691.55 187.11H681.56V192.61H691.55H692.04H702.02V187.11H692.04H691.55Z" fill="#E6E6E6"/>
<path id="Vector_266" d="M660.62 187.11V192.61H670.6H671.09H681.08V187.11H671.09H670.6H660.62Z" fill="#E6E6E6"/>
<path id="Vector_267" d="M660.13 187.11H649.66V192.61H660.13V187.11Z" fill="#E6E6E6"/>
<path id="Vector_268" d="M785.8 193.1H775.82V198.61H785.8H786.29H796.28V193.1H786.29H785.8Z" fill="#E6E6E6"/>
<path id="Vector_269" d="M765.35 198.61H775.33V193.1H765.35H764.86H754.87V198.61H764.86H765.35Z" fill="#E6E6E6"/>
<path id="Vector_270" d="M744.4 198.61H754.38V193.1H744.4H743.91H733.93V198.61H743.91H744.4Z" fill="#E6E6E6"/>
<path id="Vector_271" d="M723.45 198.61H733.44V193.1H723.45H722.97H712.98V198.61H722.97H723.45Z" fill="#E6E6E6"/>
<path id="Vector_272" d="M702.51 198.61H712.49V193.1H702.51H702.02H692.04V198.61H702.02H702.51Z" fill="#E6E6E6"/>
<path id="Vector_273" d="M671.09 193.1V198.61H681.08H681.56H691.55V193.1H681.56H681.08H671.09Z" fill="#E6E6E6"/>
<path id="Vector_274" d="M660.62 198.61H670.6V193.1H660.62H660.13H650.15V198.61H660.13H660.62Z" fill="#E6E6E6"/>
<path id="Vector_275" d="M775.82 204.6H785.8V199.09H775.82H775.33H765.35V204.6H775.33H775.82Z" fill="#E6E6E6"/>
<path id="Vector_276" d="M796.76 199.09H786.29V204.59H796.76V199.09Z" fill="#E6E6E6"/>
<path id="Vector_277" d="M754.87 204.6H764.86V199.09H754.87H754.38H744.4V204.6H754.38H754.87Z" fill="#E6E6E6"/>
<path id="Vector_278" d="M733.93 204.6H743.91V199.09H733.93H733.44H723.45V204.6H733.44H733.93Z" fill="#E6E6E6"/>
<path id="Vector_279" d="M712.98 204.6H722.97V199.09H712.98H712.49H702.51V204.6H712.49H712.98Z" fill="#E6E6E6"/>
<path id="Vector_280" d="M692.04 204.6H702.02V199.09H692.04H691.55H681.56V204.6H691.55H692.04Z" fill="#E6E6E6"/>
<path id="Vector_281" d="M660.62 199.09V204.6H670.6H671.09H681.08V199.09H671.09H670.6H660.62Z" fill="#E6E6E6"/>
<path id="Vector_282" d="M660.13 199.09H649.66V204.59H660.13V199.09Z" fill="#E6E6E6"/>
<path id="Vector_283" d="M785.8 205.09H775.82V210.59H785.8H786.29H796.28V205.09H786.29H785.8Z" fill="#E6E6E6"/>
<path id="Vector_284" d="M765.35 210.59H775.33V205.09H765.35H764.86H754.87V210.59H764.86H765.35Z" fill="#E6E6E6"/>
<path id="Vector_285" d="M744.4 210.59H754.38V205.09H744.4H743.91H733.93V210.59H743.91H744.4Z" fill="#E6E6E6"/>
<path id="Vector_286" d="M723.45 210.59H733.44V205.09H723.45H722.97H712.98V210.59H722.97H723.45Z" fill="#E6E6E6"/>
<path id="Vector_287" d="M702.51 210.59H712.49V205.09H702.51H702.02H692.04V210.59H702.02H702.51Z" fill="#E6E6E6"/>
<path id="Vector_288" d="M681.56 210.59H691.55V205.09H681.56H681.08H671.09V210.59H681.08H681.56Z" fill="#E6E6E6"/>
<path id="Vector_289" d="M660.62 210.59H670.6V205.09H660.62H660.13H650.15V210.59H660.13H660.62Z" fill="#E6E6E6"/>
<path id="Vector_290" d="M775.82 216.58H785.8V211.08H775.82H775.33H765.35V216.58H775.33H775.82Z" fill="#E6E6E6"/>
<path id="Vector_291" d="M796.76 211.08H786.29V216.58H796.76V211.08Z" fill="#E6E6E6"/>
<path id="Vector_292" d="M754.87 216.58H764.86V211.08H754.87H754.38H744.4V216.58H754.38H754.87Z" fill="#E6E6E6"/>
<path id="Vector_293" d="M733.93 216.58H743.91V211.08H733.93H733.44H723.45V216.58H733.44H733.93Z" fill="#E6E6E6"/>
<path id="Vector_294" d="M712.98 216.58H722.97V211.08H712.98H712.49H702.51V216.58H712.49H712.98Z" fill="#E6E6E6"/>
<path id="Vector_295" d="M692.04 216.58H702.02V211.08H692.04H691.55H681.56V216.58H691.55H692.04Z" fill="#E6E6E6"/>
<path id="Vector_296" d="M660.62 211.08V216.58H670.6H671.09H681.08V211.08H671.09H670.6H660.62Z" fill="#E6E6E6"/>
<path id="Vector_297" d="M660.13 211.08H649.66V216.58H660.13V211.08Z" fill="#E6E6E6"/>
<path id="Vector_298" d="M796.28 222.58V217.07H786.29H785.8H775.82V222.58H785.8H786.29H796.28Z" fill="#E6E6E6"/>
<path id="Vector_299" d="M775.33 222.58V217.07H765.35H764.86H754.87V222.58H764.86H765.35H775.33Z" fill="#E6E6E6"/>
<path id="Vector_300" d="M754.38 222.58V217.07H744.4H743.91H733.93V222.58H743.91H744.4H754.38Z" fill="#E6E6E6"/>
<path id="Vector_301" d="M733.44 222.58V217.07H723.45H722.97H712.98V222.58H722.97H723.45H733.44Z" fill="#E6E6E6"/>
<path id="Vector_302" d="M712.49 222.58V217.07H702.51H702.02H692.04V222.58H702.02H702.51H712.49Z" fill="#E6E6E6"/>
<path id="Vector_303" d="M691.55 222.58V217.07H681.56H681.08H671.09V222.58H681.08H681.56H691.55Z" fill="#E6E6E6"/>
<path id="Vector_304" d="M670.6 222.58V217.07H660.62H660.13H650.15V222.58H660.13H660.62H670.6Z" fill="#E6E6E6"/>
<path id="Vector_305" d="M775.33 223.06H765.35V228.57H785.8V223.06H775.82H775.33Z" fill="#E6E6E6"/>
<path id="Vector_306" d="M796.76 223.06H786.29V228.57H796.76V223.06Z" fill="#E6E6E6"/>
<path id="Vector_307" d="M754.38 223.06H744.4V228.57H764.86V223.06H754.87H754.38Z" fill="#E6E6E6"/>
<path id="Vector_308" d="M733.44 223.06H723.45V228.57H743.91V223.06H733.93H733.44Z" fill="#E6E6E6"/>
<path id="Vector_309" d="M712.49 223.06H702.51V228.57H722.97V223.06H712.98H712.49Z" fill="#E6E6E6"/>
<path id="Vector_310" d="M691.55 223.06H681.56V228.57H702.02V223.06H692.04H691.55Z" fill="#E6E6E6"/>
<path id="Vector_311" d="M670.6 223.06H660.62V228.57H681.08V223.06H671.09H670.6Z" fill="#E6E6E6"/>
<path id="Vector_312" d="M660.13 223.06H649.66V228.57H660.13V223.06Z" fill="#E6E6E6"/>
</g>
</g>
<g id="Group_34">
<path id="Vector_313" fill-rule="evenodd" clip-rule="evenodd" d="M750.51 125.38C750.51 127.34 748.92 128.94 746.95 128.94C744.98 128.94 743.39 127.35 743.39 125.38C743.39 123.41 744.98 121.82 746.95 121.82C748.92 121.82 750.51 123.41 750.51 125.38Z" fill="#FFD600"/>
<path id="Vector_314" d="M747.6 86.45H746.31V115.34H747.6V86.45Z" fill="#666666"/>
<path id="Vector_315" d="M752.21 114.54H741.7L731.63 125.38H762.28L752.21 114.54Z" fill="#FFEDC7"/>
</g>
<g id="Group_35">
<path id="Vector_316" d="M772.06 188.73C781.57 188.73 789.28 181.02 789.28 171.51C789.28 162 781.57 154.29 772.06 154.29C762.55 154.29 754.84 162 754.84 171.51C754.84 181.02 762.55 188.73 772.06 188.73Z" fill="#C3A76F"/>
<path id="Vector_317" d="M772.06 186.91C780.565 186.91 787.46 180.015 787.46 171.51C787.46 163.005 780.565 156.11 772.06 156.11C763.555 156.11 756.66 163.005 756.66 171.51C756.66 180.015 763.555 186.91 772.06 186.91Z" fill="#E0F0FF"/>
<g id="Group_36">
<path id="Vector_318" d="M764.67 157.99V185.05C765.28 185.38 765.93 185.66 766.59 185.91V157.13C765.93 157.38 765.28 157.66 764.67 157.99Z" fill="#EDF6FF"/>
<path id="Vector_319" d="M780.17 158.47V184.56C780.67 184.25 781.15 183.92 781.6 183.55V159.47C781.14 159.11 780.66 158.77 780.17 158.46V158.47Z" fill="#EDF6FF"/>
<path id="Vector_320" d="M768.7 156.49V186.54C769.55 186.73 770.43 186.83 771.33 186.88V156.16C770.43 156.2 769.55 156.31 768.7 156.5V156.49Z" fill="#EDF6FF"/>
</g>
</g>
<g id="Group_37">
<g id="Group_38">
<path id="Vector_321" opacity="0.3" d="M713.34 195.91C713.34 194.37 714.59 193.12 716.13 193.12C717.67 193.12 718.92 194.37 718.92 195.91C718.92 197.45 717.67 198.7 716.13 198.7C714.59 198.7 713.34 197.45 713.34 195.91Z" fill="#72BAB6"/>
<path id="Vector_322" opacity="0.3" d="M708.72 202.57C708.72 201.03 709.97 199.78 711.51 199.78C713.05 199.78 714.3 201.03 714.3 202.57C714.3 204.11 713.05 205.36 711.51 205.36C709.97 205.36 708.72 204.11 708.72 202.57Z" fill="#72BAB6"/>
<path id="Vector_323" opacity="0.3" d="M712.33 202.57C712.33 201.03 713.58 199.78 715.12 199.78C716.66 199.78 717.91 201.03 717.91 202.57C717.91 204.11 716.66 205.36 715.12 205.36C713.58 205.36 712.33 204.11 712.33 202.57Z" fill="#72BAB6"/>
<path id="Vector_324" opacity="0.3" d="M716.14 201.49C716.14 199.95 717.39 198.7 718.93 198.7C720.47 198.7 721.72 199.95 721.72 201.49C721.72 203.03 720.47 204.28 718.93 204.28C717.39 204.28 716.14 203.03 716.14 201.49Z" fill="#72BAB6"/>
<path id="Vector_325" opacity="0.3" d="M718.93 203.25C718.93 201.71 720.18 200.46 721.72 200.46C723.26 200.46 724.51 201.71 724.51 203.25C724.51 204.79 723.26 206.04 721.72 206.04C720.18 206.04 718.93 204.79 718.93 203.25Z" fill="#72BAB6"/>
<path id="Vector_326" opacity="0.3" d="M704.69 199.78C704.69 198.24 705.94 196.99 707.48 196.99C709.02 196.99 710.27 198.24 710.27 199.78C710.27 201.32 709.02 202.57 707.48 202.57C705.94 202.57 704.69 201.32 704.69 199.78Z" fill="#72BAB6"/>
<path id="Vector_327" opacity="0.3" d="M702.75 202.57C702.75 201.03 704 199.78 705.54 199.78C707.08 199.78 708.33 201.03 708.33 202.57C708.33 204.11 707.08 205.36 705.54 205.36C704 205.36 702.75 204.11 702.75 202.57Z" fill="#72BAB6"/>
<path id="Vector_328" opacity="0.3" d="M699.11 200.46C699.11 198.92 700.36 197.67 701.9 197.67C703.44 197.67 704.69 198.92 704.69 200.46C704.69 202 703.44 203.25 701.9 203.25C700.36 203.25 699.11 202 699.11 200.46Z" fill="#72BAB6"/>
<path id="Vector_329" opacity="0.3" d="M698.03 202.57C698.03 201.03 699.28 199.78 700.82 199.78C702.36 199.78 703.61 201.03 703.61 202.57C703.61 204.11 702.36 205.36 700.82 205.36C699.28 205.36 698.03 204.11 698.03 202.57Z" fill="#72BAB6"/>
<path id="Vector_330" opacity="0.3" d="M694.56 201.49C694.56 199.95 695.81 198.7 697.35 198.7C698.89 198.7 700.14 199.95 700.14 201.49C700.14 203.03 698.89 204.28 697.35 204.28C695.81 204.28 694.56 203.03 694.56 201.49Z" fill="#72BAB6"/>
<path id="Vector_331" opacity="0.3" d="M693.98 202.57C693.98 201.03 695.23 199.78 696.77 199.78C698.31 199.78 699.56 201.03 699.56 202.57C699.56 204.11 698.31 205.36 696.77 205.36C695.23 205.36 693.98 204.11 693.98 202.57Z" fill="#72BAB6"/>
<path id="Vector_332" opacity="0.3" d="M691.18 198.7C691.18 197.16 692.43 195.91 693.97 195.91C695.51 195.91 696.76 197.16 696.76 198.7C696.76 200.24 695.51 201.49 693.97 201.49C692.43 201.49 691.18 200.24 691.18 198.7Z" fill="#72BAB6"/>
<path id="Vector_333" opacity="0.3" d="M689.46 199.83C689.46 198.28 690.72 197.02 692.27 197.02C693.82 197.02 695.08 198.28 695.08 199.83C695.08 201.38 693.82 202.64 692.27 202.64C690.72 202.64 689.46 201.38 689.46 199.83Z" fill="#72BAB6"/>
<path id="Vector_334" opacity="0.3" d="M685.51 198.75C685.51 197.2 686.77 195.94 688.32 195.94C689.87 195.94 691.13 197.2 691.13 198.75C691.13 200.3 689.87 201.56 688.32 201.56C686.77 201.56 685.51 200.3 685.51 198.75Z" fill="#72BAB6"/>
<path id="Vector_335" opacity="0.3" d="M682.7 200.52C682.7 198.97 683.96 197.71 685.51 197.71C687.06 197.71 688.32 198.97 688.32 200.52C688.32 202.07 687.06 203.33 685.51 203.33C683.96 203.33 682.7 202.07 682.7 200.52Z" fill="#72BAB6"/>
<path id="Vector_336" opacity="0.3" d="M688.32 194.9C688.32 193.35 689.58 192.09 691.13 192.09C692.68 192.09 693.94 193.35 693.94 194.9C693.94 196.45 692.68 197.71 691.13 197.71C689.58 197.71 688.32 196.45 688.32 194.9Z" fill="#72BAB6"/>
<path id="Vector_337" opacity="0.3" d="M680.02 197.67C680.02 196.13 681.27 194.88 682.81 194.88C684.35 194.88 685.6 196.13 685.6 197.67C685.6 199.21 684.35 200.46 682.81 200.46C681.27 200.46 680.02 199.21 680.02 197.67Z" fill="#72BAB6"/>
<path id="Vector_338" opacity="0.1" d="M674.38 198.7C674.38 197.16 675.63 195.91 677.17 195.91C678.71 195.91 679.96 197.16 679.96 198.7C679.96 200.24 678.71 201.49 677.17 201.49C675.63 201.49 674.38 200.24 674.38 198.7Z" fill="#4EA0AC"/>
<path id="Vector_339" opacity="0.3" d="M675.34 195.94C675.34 194.39 676.6 193.13 678.15 193.13C679.7 193.13 680.96 194.39 680.96 195.94C680.96 197.49 679.7 198.75 678.15 198.75C676.6 198.75 675.34 197.49 675.34 195.94Z" fill="#72BAB6"/>
<path id="Vector_340" opacity="0.3" d="M669.72 197.02C669.72 195.47 670.98 194.21 672.53 194.21C674.08 194.21 675.34 195.47 675.34 197.02C675.34 198.57 674.08 199.83 672.53 199.83C670.98 199.83 669.72 198.57 669.72 197.02Z" fill="#72BAB6"/>
<path id="Vector_341" opacity="0.3" d="M666.4 191.12C666.4 189.58 667.65 188.33 669.19 188.33C670.73 188.33 671.98 189.58 671.98 191.12C671.98 192.66 670.73 193.91 669.19 193.91C667.65 193.91 666.4 192.66 666.4 191.12Z" fill="#72BAB6"/>
<path id="Vector_342" opacity="0.3" d="M662.2 194.2C662.2 192.66 663.45 191.41 664.99 191.41C666.53 191.41 667.78 192.66 667.78 194.2C667.78 195.74 666.53 196.99 664.99 196.99C663.45 196.99 662.2 195.74 662.2 194.2Z" fill="#72BAB6"/>
<path id="Vector_343" opacity="0.3" d="M658.58 195.91C658.58 194.37 659.83 193.12 661.37 193.12C662.91 193.12 664.16 194.37 664.16 195.91C664.16 197.45 662.91 198.7 661.37 198.7C659.83 198.7 658.58 197.45 658.58 195.91Z" fill="#72BAB6"/>
<path id="Vector_344" opacity="0.3" d="M659.41 197.96C660.951 197.96 662.2 196.711 662.2 195.17C662.2 193.629 660.951 192.38 659.41 192.38C657.869 192.38 656.62 193.629 656.62 195.17C656.62 196.711 657.869 197.96 659.41 197.96Z" fill="#72BAB6"/>
<path id="Vector_345" opacity="0.3" d="M661.37 190.17C661.37 188.63 662.62 187.38 664.16 187.38C665.7 187.38 666.95 188.63 666.95 190.17C666.95 191.71 665.7 192.96 664.16 192.96C662.62 192.96 661.37 191.71 661.37 190.17Z" fill="#72BAB6"/>
<path id="Vector_346" opacity="0.3" d="M679.24 182.88C679.24 181.33 680.5 180.07 682.05 180.07C683.6 180.07 684.86 181.33 684.86 182.88C684.86 184.43 683.6 185.69 682.05 185.69C680.5 185.69 679.24 184.43 679.24 182.88Z" fill="#72BAB6"/>
<path id="Vector_347" opacity="0.3" d="M693.94 188.75C693.94 187.2 695.2 185.94 696.75 185.94C698.3 185.94 699.56 187.2 699.56 188.75C699.56 190.3 698.3 191.56 696.75 191.56C695.2 191.56 693.94 190.3 693.94 188.75Z" fill="#72BAB6"/>
</g>
<path id="Vector_348" d="M656.26 197.28C656.26 197.28 678.2 195.61 691.52 200.33C703.29 204.5 725.47 203.25 733.16 202.52C734.37 202.41 735.36 203.43 735.21 204.63C734.71 208.6 732.82 216.71 725.81 221.93C723.27 223.82 720.15 224.77 716.98 224.77H678.4C675.35 224.77 672.39 223.86 669.87 222.14C665.68 219.28 659.74 213.83 656.54 204.58C656.54 204.58 653.85 203.5 653 201.32C651.79 198.21 653.2 197.45 656.26 197.29V197.28Z" fill="white"/>
<g id="Group_39">
<path id="Vector_349" d="M659.34 196.99H658.23V166.46C658.23 163.38 658.51 161.56 660.07 159.55C661.53 157.67 664.37 156.93 666.84 157.77C669.7 158.75 671.34 161.52 671.34 165.35H670.23C670.23 162.02 668.86 159.64 666.48 158.82C664.45 158.13 662.13 158.72 660.95 160.23C659.57 162 659.34 163.58 659.34 166.46V196.99Z" fill="#666666"/>
<g id="Group_40">
<path id="Vector_350" d="M672.18 165.95C672.18 166.28 671.91 166.55 671.58 166.55H670.01C669.68 166.55 669.41 166.28 669.41 165.95C669.41 165.62 669.68 165.35 670.01 165.35H671.58C671.91 165.35 672.18 165.62 672.18 165.95Z" fill="#808080"/>
<g id="Group_41">
<path id="Vector_351" d="M665.47 171.51C665.47 168.57 667.85 166.2 670.78 166.2C673.71 166.2 676.09 168.58 676.09 171.51" fill="#666666"/>
<path id="Vector_352" d="M676.1 171.51H665.47V172.49H676.1V171.51Z" fill="#808080"/>
</g>
</g>
</g>
<path id="Vector_353" d="M715.55 224.76H711.75V229.05H715.55V224.76Z" fill="#666666"/>
<path id="Vector_354" d="M683.45 224.76H679.65V229.05H683.45V224.76Z" fill="#666666"/>
</g>
<g id="Group_42">
<g id="Group_43">
<path id="Vector_355" d="M773.49 193.37V192.88C773.49 192.74 773.46 192.61 773.41 192.49H775.33C775.49 192.49 775.62 192.36 775.62 192.2C775.62 192.04 775.49 191.91 775.33 191.91H772.6C772.6 191.91 772.55 191.89 772.52 191.89H771.68C771.14 191.89 770.7 192.33 770.7 192.87V198.57H773.29V194.37H775.33V195.1H776.73V193.36H773.5L773.49 193.37Z" fill="#666666"/>
<path id="Vector_356" d="M783.98 198.54C784.8 198.54 785.45 199.27 785.32 200.08C784.43 205.57 778.83 209.8 772.06 209.8C765.29 209.8 759.69 205.57 758.8 200.08C758.67 199.27 759.32 198.54 760.14 198.54H783.99H783.98Z" fill="white"/>
</g>
<path id="Vector_357" d="M787.96 203.7H756.16V224.93H787.96V203.7Z" fill="#C3A76F"/>
<g id="Group_44">
<path id="Vector_358" d="M779.44 209.4H764.68V210.61H779.44V209.4Z" fill="#666666"/>
<path id="Vector_359" d="M779.44 218.03H764.68V219.24H779.44V218.03Z" fill="#666666"/>
</g>
</g>
<g id="Group_45">
<path id="Vector_360" d="M748.37 196.65H744.98C743.997 196.65 743.2 197.447 743.2 198.43V208.21C743.2 209.193 743.997 209.99 744.98 209.99H748.37C749.353 209.99 750.15 209.193 750.15 208.21V198.43C750.15 197.447 749.353 196.65 748.37 196.65Z" fill="#FBB03B"/>
<path id="Vector_361" d="M747.02 192.18V191.9C747.02 191.37 746.58 190.93 746.05 190.93C745.52 190.93 745.08 191.37 745.08 191.9V192.18C743.43 192.61 742.2 194.11 742.2 195.9C742.2 198.03 743.93 199.75 746.05 199.75C748.17 199.75 749.9 198.02 749.9 195.9C749.9 194.11 748.67 192.62 747.02 192.18ZM746.06 199.12C744.28 199.12 742.83 197.67 742.83 195.89C742.83 194.43 743.82 193.2 745.16 192.81C745.3 193.17 745.65 193.43 746.06 193.43C746.47 193.43 746.82 193.17 746.96 192.81C748.3 193.2 749.29 194.43 749.29 195.89C749.29 197.67 747.84 199.12 746.06 199.12Z" fill="#666666"/>
<path id="Vector_362" d="M747.45 196.65H744.66C743.854 196.65 743.2 197.304 743.2 198.11V206.14C743.2 206.946 743.854 207.6 744.66 207.6H747.45C748.256 207.6 748.91 206.946 748.91 206.14V198.11C748.91 197.304 748.256 196.65 747.45 196.65Z" fill="#FFBD32"/>
</g>
<g id="Group_46">
<path id="Vector_363" d="M720.56 152.07H704.91V167.72H720.56V152.07Z" fill="#C4A870"/>
<path id="Vector_364" d="M719.09 153.55H706.39V166.25H719.09V153.55Z" fill="white"/>
<path id="Vector_365" d="M715.98 156.66H709.5V163.14H715.98V156.66Z" fill="#FFBD32"/>
</g>
<g id="Group_47">
<path id="Vector_366" d="M740.58 159.9H724.93V175.55H740.58V159.9Z" fill="#C4A870"/>
<path id="Vector_367" d="M739.1 161.37H726.4V174.07H739.1V161.37Z" fill="white"/>
<path id="Vector_368" d="M735.99 164.48H729.51V170.96H735.99V164.48Z" fill="#F7931E"/>
</g>
</g>
</g>
</svg>
